<?xml version="1.0" standalone="no"?>
<!DOCTYPE svg PUBLIC "-//W3C//DTD SVG 20010904//EN"
 "http://www.w3.org/TR/2001/REC-SVG-20010904/DTD/svg10.dtd">
<svg version="1.0" xmlns="http://www.w3.org/2000/svg"
 width="539.000000pt" height="539.000000pt" viewBox="0 0 539.000000 539.000000"
 preserveAspectRatio="xMidYMid meet">
<metadata>
Created by potrace 1.14, written by Peter Selinger 2001-2017
</metadata>
<g transform="translate(0.000000,539.000000) scale(0.100000,-0.100000)"
fill="#000000" stroke="none">
<path d="M175 4816 c-62 -29 -107 -76 -136 -140 l-22 -50 -1 -1495 -1 -1496
21 -45 c29 -62 67 -105 123 -138 l46 -27 950 -5 950 -5 -3 -40 c-11 -134 -143
-403 -283 -575 -63 -78 -73 -114 -44 -169 23 -46 81 -63 223 -69 313 -12 571
93 821 332 129 124 258 303 327 451 l35 75 992 0 c976 0 993 1 1037 21 55 25
114 80 143 134 l22 40 3 1494 c3 1687 8 1565 -74 1647 -25 25 -64 54 -87 64
-41 19 -102 20 -2517 20 l-2475 0 -50 -24z m4973 -1683 c1 -810 1 -1474 0
-1475 -2 -2 -474 -5 -1050 -8 -1217 -6 -1082 10 -1134 -131 -36 -100 -63 -153
-117 -234 -104 -154 -274 -324 -392 -390 -73 -41 -227 -93 -302 -102 l-55 -6
27 43 c48 76 133 253 160 334 92 274 64 439 -78 475 -33 8 -315 11 -1000 11
-862 0 -955 2 -961 16 -8 22 -8 2929 1 2937 3 4 1107 6 2452 5 l2446 -3 3
-1472z"/>
<path d="M2020 3800 c-19 -19 -20 -33 -20 -242 0 -123 4 -228 8 -234 16 -24
55 -34 134 -34 52 0 89 -5 96 -12 31 -31 1 -244 -48 -344 -31 -63 -79 -106
-133 -120 -45 -11 -57 -38 -57 -136 0 -83 1 -88 26 -105 23 -15 33 -15 83 -5
188 39 316 184 382 432 21 79 23 111 27 436 l4 352 -23 16 c-20 14 -57 16
-241 16 -205 0 -219 -1 -238 -20z"/>
<path d="M2957 3802 c-14 -15 -17 -50 -17 -246 -1 -197 1 -231 15 -245 12 -12
41 -17 113 -19 53 -2 103 -9 111 -15 10 -9 12 -30 7 -97 -17 -207 -80 -330
-188 -366 -53 -17 -55 -20 -61 -124 -7 -117 18 -144 115 -121 221 50 358 248
398 571 5 46 10 209 10 362 0 265 -1 279 -20 298 -19 19 -33 20 -243 20 -203
0 -225 -2 -240 -18z"/>
</g>
</svg>
